<svg width="34" height="34" viewBox="0 0 34 34" fill="none" xmlns="http://www.w3.org/2000/svg">
<path d="M11.3184 2.62134C14.166 -0.873067 19.5039 -0.873067 22.3516 2.62134L25.7988 6.85083C26.1037 7.22489 26.4462 7.56748 26.8203 7.87231L31.0498 11.3186C34.5442 14.1663 34.5442 19.5041 31.0498 22.3518L26.8203 25.7991C26.4462 26.1039 26.1037 26.4465 25.7988 26.8206L22.3516 31.05C19.5039 34.5445 14.166 34.5445 11.3184 31.05L7.87207 26.8206C7.56724 26.4465 7.22465 26.1039 6.85059 25.7991L2.62012 22.3518C-0.87375 19.504 -0.874066 14.1661 2.62012 11.3186L6.85059 7.87231C7.22465 7.56748 7.56724 7.22489 7.87207 6.85083L11.3184 2.62134ZM16.8359 5.02759C10.3149 5.02759 5.02848 10.3142 5.02832 16.8352C5.02832 23.3564 10.3148 28.6428 16.8359 28.6428C23.3569 28.6426 28.6436 23.3562 28.6436 16.8352C28.6434 10.3143 23.3568 5.02781 16.8359 5.02759Z" fill="#7858FF"/>
</svg>
