<svg width="105" height="32" viewBox="0 0 105 32" fill="none" xmlns="http://www.w3.org/2000/svg">
<path d="M10.8271 2.45703C13.4973 -0.819457 18.5027 -0.819403 21.1729 2.45703L24.501 6.54199C24.7867 6.89252 25.1075 7.21334 25.458 7.49902L29.543 10.8271C32.8195 13.4974 32.8194 18.5026 29.543 21.1729L25.458 24.501C25.1074 24.7867 24.7867 25.1084 24.501 25.459L21.1729 29.5439C18.5027 32.8199 13.4973 32.8199 10.8271 29.5439L7.49902 25.459C7.21324 25.1083 6.89169 24.7868 6.54102 24.501L2.45703 21.1729C-0.81927 18.5027 -0.819203 13.4974 2.45703 10.8271L6.54102 7.49902C6.89171 7.21323 7.21322 6.89268 7.49902 6.54199L10.8271 2.45703ZM62.4189 27.458H57.9121L56.1406 22.1445H47.3193L45.5488 27.458H41.0088L48.9609 4.91309H54.499L62.4189 27.458ZM73.3105 4.91309C74.5769 4.91309 75.6933 5.07441 76.6592 5.39648C77.6463 5.7185 78.4832 6.18022 79.1699 6.78125C79.8782 7.38245 80.4046 8.11282 80.748 8.97168C81.1129 9.80901 81.2949 10.7752 81.2949 11.8701V12.1602C81.2949 13.6202 80.9407 14.8874 80.2324 15.9609C79.5241 17.0128 78.5475 17.7963 77.3027 18.3115L82.8408 27.458H77.8506L73.2139 19.2461H68.8994V27.458H64.6826V4.91309H73.3105ZM94.3896 12.7725H94.6475L99.251 4.91309H104.08L97.416 15.6709V15.832L104.531 27.458H99.6699L94.6475 18.666H94.3574L89.3994 27.458H84.5371L91.6211 15.8643V15.7031L84.9561 4.91309H89.8174L94.3896 12.7725ZM16 4.80859C9.8189 4.80869 4.8088 9.81902 4.80859 16C4.80875 22.181 9.81887 27.1923 16 27.1924C22.1812 27.1923 27.1922 22.1811 27.1924 16C27.1922 9.81898 22.1812 4.80863 16 4.80859ZM48.3818 18.666H55.0781L51.8584 9.13281H51.6016L48.3818 18.666ZM68.8037 15.9287H72.7959C74.2338 15.9287 75.3074 15.606 76.0156 14.9619C76.7237 14.3178 77.0771 13.4375 77.0771 12.3213V11.999C77.0771 10.9042 76.7129 10.0563 75.9834 9.45508C75.2751 8.83246 74.2231 8.52056 72.8281 8.52051H68.8037V15.9287Z" fill="white"/>
</svg>
