<svg width="24" height="24" viewBox="0 0 24 24" fill="none" xmlns="http://www.w3.org/2000/svg">
<mask id="mask0_1042_2408" style="mask-type:luminance" maskUnits="userSpaceOnUse" x="1" y="1" width="22" height="22">
<path d="M1 1H23V23H1V1Z" fill="white"/>
</mask>
<g mask="url(#mask0_1042_2408)">
<path d="M6.31929 8.25994C9.4573 5.19981 14.5452 5.19981 17.6832 8.25994L18.0608 8.62822C18.2178 8.78119 18.2178 9.02928 18.0608 9.18225L16.7689 10.4421C16.6905 10.5186 16.5633 10.5186 16.4848 10.4421L15.9651 9.93531C13.7759 7.80051 10.2266 7.80051 8.03734 9.93531L7.48074 10.4781C7.40228 10.5545 7.27512 10.5545 7.19665 10.4781L5.90474 9.21819C5.7478 9.06521 5.7478 8.81713 5.90474 8.66415L6.31929 8.25994ZM20.3551 10.8654L21.5049 11.9867C21.6618 12.1396 21.6618 12.3877 21.5049 12.5407L16.3202 17.5966C16.1633 17.7496 15.9089 17.7496 15.752 17.5966L12.0723 14.0083C12.0331 13.97 11.9695 13.97 11.9302 14.0083L8.25052 17.5966C8.09366 17.7496 7.83927 17.7496 7.68234 17.5966L2.49756 12.5406C2.34066 12.3877 2.34066 12.1396 2.49756 11.9866L3.64739 10.8653C3.80429 10.7123 4.05868 10.7123 4.21558 10.8653L7.89537 14.4537C7.9346 14.492 7.99818 14.492 8.03742 14.4537L11.7171 10.8653C11.8739 10.7123 12.1283 10.7123 12.2853 10.8653L15.965 14.4537C16.0043 14.492 16.0679 14.492 16.1071 14.4537L19.7869 10.8654C19.9437 10.7124 20.1981 10.7124 20.3551 10.8654Z" fill="white"/>
</g>
</svg>
