<svg width="20" height="20" viewBox="0 0 20 20" fill="none" xmlns="http://www.w3.org/2000/svg">
<mask id="mask0_1038_3272" style="mask-type:luminance" maskUnits="userSpaceOnUse" x="0" y="0" width="20" height="20">
<path d="M0.833008 0.832031H19.1663V19.1654H0.833008V0.832031Z" fill="white"/>
</mask>
<g mask="url(#mask0_1038_3272)">
<path d="M5.26526 6.88133C7.88027 4.33122 12.1202 4.33122 14.7352 6.88133L15.0499 7.18823C15.1807 7.31571 15.1807 7.52245 15.0499 7.64992L13.9733 8.69981C13.9079 8.76355 13.8019 8.76355 13.7365 8.69981L13.3035 8.27747C11.4791 6.49847 8.52132 6.49847 6.69697 8.27747L6.23314 8.72976C6.16775 8.7935 6.06178 8.7935 5.9964 8.72976L4.9198 7.67987C4.78902 7.55239 4.78902 7.34565 4.9198 7.21817L5.26526 6.88133ZM16.9617 9.05255L17.9199 9.98694C18.0507 10.1144 18.0507 10.3212 17.9199 10.4486L13.5993 14.6619C13.4686 14.7894 13.2566 14.7894 13.1259 14.6619L10.0594 11.6716C10.0267 11.6397 9.97375 11.6397 9.94106 11.6716L6.87462 14.6619C6.74391 14.7894 6.53191 14.7894 6.40113 14.6619L2.08049 10.4486C1.94973 10.3211 1.94973 10.1144 2.08049 9.98688L3.03868 9.05249C3.16943 8.92495 3.38142 8.92495 3.51217 9.05249L6.57866 12.0428C6.61136 12.0747 6.66434 12.0747 6.69703 12.0428L9.76341 9.05249C9.89412 8.92495 10.1061 8.92495 10.2369 9.05249L13.3034 12.0428C13.3361 12.0747 13.3891 12.0747 13.4218 12.0428L16.4883 9.05255C16.619 8.92501 16.831 8.92501 16.9617 9.05255Z" fill="black"/>
</g>
</svg>
