<svg width="36" height="36" viewBox="0 0 36 36" fill="none" xmlns="http://www.w3.org/2000/svg">
<rect width="36" height="36" rx="18" fill="url(#paint0_linear_4334_19068)"/>
<path d="M14.4434 8.68945C16.2791 6.4369 19.7199 6.43696 21.5557 8.68945L23.8447 11.4971C24.0412 11.7382 24.2618 11.9588 24.5029 12.1553L27.3105 14.4434C29.5632 16.279 29.563 19.7199 27.3105 21.5557L24.5029 23.8438C24.2619 24.0402 24.0412 24.261 23.8447 24.502L21.5557 27.3105C19.7199 29.5628 16.279 29.563 14.4434 27.3105L12.1553 24.502C11.9588 24.2609 11.7381 24.0402 11.4971 23.8438L8.68945 21.5557C6.43686 19.7199 6.43678 16.2791 8.68945 14.4434L11.4971 12.1553C11.7382 11.9588 11.9588 11.7382 12.1553 11.4971L14.4434 8.68945ZM18 10.3057C13.7504 10.3057 10.3057 13.7505 10.3057 18C10.3057 22.2495 13.7504 25.6943 18 25.6943C22.2496 25.6943 25.6943 22.2495 25.6943 18C25.6943 13.7506 22.2496 10.3057 18 10.3057Z" fill="white"/>
<defs>
<linearGradient id="paint0_linear_4334_19068" x1="18" y1="1.875e-06" x2="18" y2="36" gradientUnits="userSpaceOnUse">
<stop stop-color="#A691FF"/>
<stop offset="1" stop-color="#6541FF"/>
</linearGradient>
</defs>
</svg>
