<svg width="24" height="24" viewBox="0 0 24 24" fill="none" xmlns="http://www.w3.org/2000/svg">
  <g clip-path="url(#clip0_14862_29152)">
    <path d="M0 0H24V24H0V0Z" fill="#F7931A" />
    <path fill-rule="evenodd" clip-rule="evenodd"
      d="M8.53165 5.47883L11.2895 6.21738L11.9058 3.91992L13.2847 4.2941L12.6924 6.49665L13.8171 6.79883L14.4106 4.57229L15.8135 4.94756L15.2091 7.1861C15.2091 7.1861 17.5 7.69338 18.0389 9.55665C18.5778 11.4199 16.8542 12.3985 16.3218 12.4356C16.3218 12.4356 18.3291 13.5363 17.6397 15.7017C16.9502 17.8672 14.8338 18.2545 12.6073 17.7581L12.0029 20.0796L10.6 19.7043L11.2164 17.4188L10.1037 17.1156L9.48729 19.4174L8.09529 19.0432L8.71274 16.7523L5.88184 15.9887L6.59529 14.4046C6.59529 14.4046 7.39384 14.6228 7.69602 14.6948C7.9982 14.7668 8.19238 14.4526 8.27747 14.1385C8.36256 13.8243 9.64438 8.61738 9.76547 8.18865C9.88656 7.75992 9.83747 7.42501 9.32911 7.29301C8.82074 7.16101 8.12911 6.95483 8.12911 6.95483L8.53165 5.47883ZM11.3135 12.3745L10.5498 15.4105C10.5498 15.4105 14.3364 16.7774 14.8207 14.8541C15.3051 12.9308 11.3135 12.3745 11.3135 12.3745ZM11.6647 10.9345L12.4142 8.15265C12.4142 8.15265 15.6564 8.73301 15.2571 10.281C14.8578 11.829 12.9466 11.2356 11.6647 10.9345Z"
      fill="white" />
  </g>
  <defs>
    <clipPath id="clip0_14862_29152">
      <rect width="24" height="24" rx="12" fill="white" />
    </clipPath>
  </defs>
</svg>