<svg width="24" height="24" viewBox="0 0 24 24" fill="none" xmlns="http://www.w3.org/2000/svg">
  <g clip-path="url(#clip0_14862_20670)">
    <path d="M0 0H24V24H0V0Z" fill="#F4B731" />
    <path fill-rule="evenodd" clip-rule="evenodd"
      d="M6.95775 6H11.8718C14.8605 6 17.1262 7.587 17.9692 9.8955H19.5V11.2913H18.2917C18.315 11.5118 18.327 11.7368 18.327 11.9648V11.9992C18.327 12.2557 18.312 12.5093 18.282 12.7568H19.5V14.1517H17.94C17.0752 16.4288 14.8275 18 11.8725 18H6.95775V14.1517H5.25V12.7568H6.95775V11.2913H5.25V9.89625H6.95775V6ZM8.331 14.1517V16.7482H11.871C14.0565 16.7482 15.6795 15.708 16.4347 14.1517H8.331ZM16.8555 12.7568H8.331V11.2913H16.8585C16.8893 11.5215 16.9058 11.7577 16.9058 11.9992V12.033C16.9058 12.2798 16.8885 12.5205 16.8555 12.756V12.7568ZM11.8725 7.24875C14.067 7.24875 15.6952 8.31675 16.446 9.89475H8.331V7.2495H11.871L11.8725 7.24875Z"
      fill="white" />
  </g>
  <defs>
    <clipPath id="clip0_14862_20670">
      <rect width="24" height="24" rx="12" fill="white" />
    </clipPath>
  </defs>
</svg>