<svg width="24" height="24" viewBox="0 0 24 24" fill="none" xmlns="http://www.w3.org/2000/svg">
  <g clip-path="url(#clip0_14862_28503)">
    <path d="M0 0H24V24H0V0Z" fill="#2775CA" />
    <path
      d="M15.3 13.9001C15.3 12.1546 14.2506 11.5492 12.1506 11.2993C10.6495 11.0997 10.3506 10.6993 10.3506 10.0001C10.3506 9.30079 10.8502 8.84916 11.8495 8.84916C12.7506 8.84916 13.2502 9.14916 13.5 9.8997C13.5269 9.97201 13.5753 10.0343 13.6387 10.0782C13.7021 10.1221 13.7774 10.1455 13.8546 10.1452H14.6542C14.7005 10.1464 14.7466 10.1381 14.7896 10.1209C14.8327 10.1038 14.8717 10.078 14.9045 10.0453C14.9373 10.0125 14.963 9.97342 14.9802 9.93039C14.9974 9.88736 15.0056 9.84129 15.0044 9.79498V9.74588C14.9078 9.20396 14.6349 8.70912 14.2281 8.33825C13.8213 7.96737 13.3035 7.74124 12.7549 7.69498V6.49498C12.7549 6.29534 12.6044 6.14588 12.3546 6.0957H11.604C11.4044 6.0957 11.2549 6.24516 11.2048 6.49498V7.64916C9.70039 7.85425 8.75021 8.84916 8.75021 10.0993C8.75021 11.7499 9.75057 12.4001 11.8506 12.6499C13.2502 12.8997 13.7051 13.1953 13.7051 13.9993C13.7051 14.8033 13.0058 15.3499 12.0557 15.3499C10.7553 15.3499 10.3102 14.8044 10.1553 14.0495C10.141 13.9652 10.0976 13.8885 10.0326 13.8329C9.96762 13.7773 9.88519 13.7463 9.79967 13.7452H8.94548C8.89921 13.7441 8.85321 13.7525 8.81025 13.7697C8.76729 13.7869 8.72827 13.8127 8.69554 13.8454C8.66282 13.8781 8.63706 13.9171 8.61983 13.9601C8.6026 14.0031 8.59426 14.0491 8.5953 14.0953V14.1455C8.79603 15.3957 9.59567 16.2957 11.2462 16.5455V17.7455C11.2462 17.9452 11.3957 18.0957 11.6455 18.1459H12.396C12.5957 18.1459 12.7462 17.9953 12.7953 17.7455V16.5455C14.2953 16.2957 15.2957 15.2452 15.2957 13.8957L15.3 13.9001Z"
      fill="white" />
    <path
      d="M9.44946 19.1498C8.01079 18.6222 6.76882 17.6655 5.89144 16.4091C5.01406 15.1528 4.54356 13.6573 4.54356 12.1249C4.54356 10.5925 5.01406 9.0971 5.89144 7.84075C6.76882 6.5844 8.01079 5.62772 9.44946 5.10003C9.54545 5.05851 9.62608 4.98804 9.68006 4.89846C9.73404 4.80887 9.75869 4.70466 9.75055 4.60039V3.90003C9.75728 3.80816 9.73049 3.71697 9.67512 3.64335C9.61976 3.56974 9.53958 3.51869 9.44946 3.49967C9.37908 3.49233 9.30837 3.5101 9.24982 3.54985C7.42954 4.12841 5.84059 5.27121 4.71297 6.81284C3.58534 8.35446 2.97754 10.2149 2.97754 12.1249C2.97754 14.035 3.58534 15.8954 4.71297 17.437C5.84059 18.9787 7.42954 20.1215 9.24982 20.7C9.29139 20.7242 9.3381 20.7381 9.3861 20.7408C9.43411 20.7434 9.48205 20.7346 9.52601 20.7151C9.56997 20.6956 9.60868 20.666 9.63899 20.6287C9.6693 20.5914 9.69033 20.5474 9.70037 20.5004C9.75055 20.4502 9.75055 20.4 9.75055 20.2997V19.6004C9.75055 19.4498 9.6 19.2502 9.44946 19.1498ZM14.7502 3.54985C14.7085 3.5257 14.6618 3.51177 14.6137 3.50921C14.5656 3.50665 14.5176 3.51553 14.4736 3.53512C14.4297 3.55472 14.391 3.58446 14.3607 3.62191C14.3305 3.65937 14.3095 3.70346 14.2996 3.75058C14.2505 3.79967 14.2505 3.84985 14.2505 3.95021V4.64948C14.259 4.75032 14.2904 4.84789 14.3424 4.93469C14.3944 5.02149 14.4656 5.09522 14.5505 5.15021C15.9892 5.6779 17.2312 6.63458 18.1086 7.89093C18.986 9.14728 19.4564 10.6427 19.4564 12.1751C19.4564 13.7075 18.986 15.203 18.1086 16.4593C17.2312 17.7157 15.9892 18.6723 14.5505 19.2C14.4547 19.2416 14.3742 19.3121 14.3204 19.4017C14.2666 19.4913 14.2422 19.5955 14.2505 19.6997V20.4C14.2438 20.4917 14.2704 20.5828 14.3256 20.6564C14.3807 20.73 14.4606 20.7811 14.5505 20.8004C14.6209 20.8077 14.6916 20.79 14.7502 20.7502C16.5698 20.1636 18.1564 19.0151 19.2819 17.4697C20.4074 15.9243 21.0138 14.0618 21.0138 12.15C21.0138 10.2382 20.4074 8.37572 19.2819 6.83035C18.1564 5.28498 16.5698 4.13642 14.7502 3.54985Z"
      fill="white" />
  </g>
  <defs>
    <clipPath id="clip0_14862_28503">
      <rect width="24" height="24" rx="12" fill="white" />
    </clipPath>
  </defs>
</svg>