<svg width="24" height="24" viewBox="0 0 24 24" fill="none" xmlns="http://www.w3.org/2000/svg">
  <g clip-path="url(#clip0_14862_11603)">
    <path d="M0 0H24V24H0V0Z" fill="#26A17B" />
    <path fill-rule="evenodd" clip-rule="evenodd"
      d="M13.4416 13.0382V13.0367C13.3591 13.0427 12.9338 13.0682 11.9851 13.0682C11.2276 13.0682 10.6943 13.0457 10.5068 13.0367V13.039C7.59085 12.9107 5.41435 12.403 5.41435 11.7955C5.41435 11.1887 7.59085 10.681 10.5068 10.5505V12.5335C10.6973 12.547 11.2433 12.5792 11.9978 12.5792C12.9031 12.5792 13.3568 12.5417 13.4416 12.5342V10.552C16.3516 10.6817 18.5228 11.1895 18.5228 11.7955C18.5228 12.403 16.3516 12.9092 13.4416 13.0382ZM13.4416 10.3457V8.57123H17.5021V5.86523H6.44635V8.57123H10.5068V10.345C7.20685 10.4965 4.7251 11.1505 4.7251 11.9335C4.7251 12.7165 7.20685 13.3697 10.5068 13.522V19.2085H13.4416V13.5205C16.7363 13.369 19.2121 12.7157 19.2121 11.9335C19.2121 11.1512 16.7363 10.498 13.4416 10.3457Z"
      fill="white" />
  </g>
  <defs>
    <clipPath id="clip0_14862_11603">
      <rect width="24" height="24" rx="12" fill="white" />
    </clipPath>
  </defs>
</svg>