<svg width="198" height="198" viewBox="0 0 198 198" fill="none" xmlns="http://www.w3.org/2000/svg">
<path d="M5.35135 0H0V5.35135H5.35135V0Z" fill="white"/>
<path d="M10.7027 0H5.35135V5.35135H10.7027V0Z" fill="white"/>
<path d="M16.0541 0H10.7027V5.35135H16.0541V0Z" fill="white"/>
<path d="M21.4054 0H16.0541V5.35135H21.4054V0Z" fill="white"/>
<path d="M26.7568 0H21.4054V5.35135H26.7568V0Z" fill="white"/>
<path d="M32.1081 0H26.7568V5.35135H32.1081V0Z" fill="white"/>
<path d="M37.4595 0H32.1081V5.35135H37.4595V0Z" fill="white"/>
<path d="M53.5135 0H48.1622V5.35135H53.5135V0Z" fill="white"/>
<path d="M58.8649 0H53.5135V5.35135H58.8649V0Z" fill="white"/>
<path d="M69.5676 0H64.2162V5.35135H69.5676V0Z" fill="white"/>
<path d="M80.2703 0H74.9189V5.35135H80.2703V0Z" fill="white"/>
<path d="M90.973 0H85.6216V5.35135H90.973V0Z" fill="white"/>
<path d="M117.73 0H112.378V5.35135H117.73V0Z" fill="white"/>
<path d="M128.432 0H123.081V5.35135H128.432V0Z" fill="white"/>
<path d="M149.838 0H144.486V5.35135H149.838V0Z" fill="white"/>
<path d="M165.892 0H160.541V5.35135H165.892V0Z" fill="white"/>
<path d="M171.243 0H165.892V5.35135H171.243V0Z" fill="white"/>
<path d="M176.595 0H171.243V5.35135H176.595V0Z" fill="white"/>
<path d="M181.946 0H176.595V5.35135H181.946V0Z" fill="white"/>
<path d="M187.297 0H181.946V5.35135H187.297V0Z" fill="white"/>
<path d="M192.649 0H187.297V5.35135H192.649V0Z" fill="white"/>
<path d="M198 0H192.649V5.35135H198V0Z" fill="white"/>
<path d="M5.35135 5.35135H0V10.7027H5.35135V5.35135Z" fill="white"/>
<path d="M37.4595 5.35135H32.1081V10.7027H37.4595V5.35135Z" fill="white"/>
<path d="M48.1622 5.35135H42.8108V10.7027H48.1622V5.35135Z" fill="white"/>
<path d="M53.5135 5.35135H48.1622V10.7027H53.5135V5.35135Z" fill="white"/>
<path d="M58.8649 5.35135H53.5135V10.7027H58.8649V5.35135Z" fill="white"/>
<path d="M69.5676 5.35135H64.2162V10.7027H69.5676V5.35135Z" fill="white"/>
<path d="M74.9189 5.35135H69.5676V10.7027H74.9189V5.35135Z" fill="white"/>
<path d="M90.973 5.35135H85.6216V10.7027H90.973V5.35135Z" fill="white"/>
<path d="M96.3243 5.35135H90.973V10.7027H96.3243V5.35135Z" fill="white"/>
<path d="M101.676 5.35135H96.3243V10.7027H101.676V5.35135Z" fill="white"/>
<path d="M107.027 5.35135H101.676V10.7027H107.027V5.35135Z" fill="white"/>
<path d="M117.73 5.35135H112.378V10.7027H117.73V5.35135Z" fill="white"/>
<path d="M123.081 5.35135H117.73V10.7027H123.081V5.35135Z" fill="white"/>
<path d="M128.432 5.35135H123.081V10.7027H128.432V5.35135Z" fill="white"/>
<path d="M133.784 5.35135H128.432V10.7027H133.784V5.35135Z" fill="white"/>
<path d="M144.486 5.35135H139.135V10.7027H144.486V5.35135Z" fill="white"/>
<path d="M165.892 5.35135H160.541V10.7027H165.892V5.35135Z" fill="white"/>
<path d="M198 5.35135H192.649V10.7027H198V5.35135Z" fill="white"/>
<path d="M5.35135 10.7027H0V16.0541H5.35135V10.7027Z" fill="white"/>
<path d="M16.0541 10.7027H10.7027V16.0541H16.0541V10.7027Z" fill="white"/>
<path d="M21.4054 10.7027H16.0541V16.0541H21.4054V10.7027Z" fill="white"/>
<path d="M26.7568 10.7027H21.4054V16.0541H26.7568V10.7027Z" fill="white"/>
<path d="M37.4595 10.7027H32.1081V16.0541H37.4595V10.7027Z" fill="white"/>
<path d="M48.1622 10.7027H42.8108V16.0541H48.1622V10.7027Z" fill="white"/>
<path d="M53.5135 10.7027H48.1622V16.0541H53.5135V10.7027Z" fill="white"/>
<path d="M69.5676 10.7027H64.2162V16.0541H69.5676V10.7027Z" fill="white"/>
<path d="M74.9189 10.7027H69.5676V16.0541H74.9189V10.7027Z" fill="white"/>
<path d="M85.6216 10.7027H80.2703V16.0541H85.6216L85.6216 10.7027Z" fill="white"/>
<path d="M90.973 10.7027H85.6216L85.6216 16.0541H90.973V10.7027Z" fill="white"/>
<path d="M96.3243 10.7027H90.973V16.0541H96.3243V10.7027Z" fill="white"/>
<path d="M101.676 10.7027H96.3243V16.0541H101.676V10.7027Z" fill="white"/>
<path d="M112.378 10.7027H107.027V16.0541H112.378V10.7027Z" fill="white"/>
<path d="M117.73 10.7027H112.378V16.0541H117.73V10.7027Z" fill="white"/>
<path d="M144.486 10.7027H139.135V16.0541H144.486V10.7027Z" fill="white"/>
<path d="M149.838 10.7027H144.486V16.0541H149.838V10.7027Z" fill="white"/>
<path d="M165.892 10.7027H160.541V16.0541H165.892V10.7027Z" fill="white"/>
<path d="M176.595 10.7027H171.243V16.0541H176.595V10.7027Z" fill="white"/>
<path d="M181.946 10.7027H176.595V16.0541H181.946V10.7027Z" fill="white"/>
<path d="M187.297 10.7027H181.946V16.0541H187.297V10.7027Z" fill="white"/>
<path d="M198 10.7027H192.649V16.0541H198V10.7027Z" fill="white"/>
<path d="M5.35135 16.0541H0V21.4054H5.35135V16.0541Z" fill="white"/>
<path d="M16.0541 16.0541H10.7027V21.4054H16.0541V16.0541Z" fill="white"/>
<path d="M21.4054 16.0541H16.0541V21.4054H21.4054V16.0541Z" fill="white"/>
<path d="M26.7568 16.0541H21.4054V21.4054H26.7568V16.0541Z" fill="white"/>
<path d="M37.4595 16.0541H32.1081V21.4054H37.4595V16.0541Z" fill="white"/>
<path d="M48.1622 16.0541H42.8108V21.4054H48.1622V16.0541Z" fill="white"/>
<path d="M58.8649 16.0541H53.5135V21.4054H58.8649V16.0541Z" fill="white"/>
<path d="M64.2162 16.0541H58.8649V21.4054H64.2162L64.2162 16.0541Z" fill="white"/>
<path d="M90.973 16.0541H85.6216L85.6216 21.4054H90.973V16.0541Z" fill="white"/>
<path d="M96.3243 16.0541H90.973V21.4054H96.3243V16.0541Z" fill="white"/>
<path d="M112.378 16.0541H107.027V21.4054H112.378V16.0541Z" fill="white"/>
<path d="M133.784 16.0541H128.432V21.4054H133.784V16.0541Z" fill="white"/>
<path d="M139.135 16.0541H133.784V21.4054H139.135V16.0541Z" fill="white"/>
<path d="M144.486 16.0541H139.135V21.4054H144.486V16.0541Z" fill="white"/>
<path d="M155.189 16.0541H149.838V21.4054H155.189V16.0541Z" fill="white"/>
<path d="M165.892 16.0541H160.541V21.4054H165.892V16.0541Z" fill="white"/>
<path d="M176.595 16.0541H171.243V21.4054H176.595V16.0541Z" fill="white"/>
<path d="M181.946 16.0541H176.595V21.4054H181.946V16.0541Z" fill="white"/>
<path d="M187.297 16.0541H181.946V21.4054H187.297V16.0541Z" fill="white"/>
<path d="M198 16.0541H192.649V21.4054H198V16.0541Z" fill="white"/>
<path d="M5.35135 21.4054H0V26.7568H5.35135V21.4054Z" fill="white"/>
<path d="M16.0541 21.4054H10.7027V26.7568H16.0541V21.4054Z" fill="white"/>
<path d="M21.4054 21.4054H16.0541V26.7568H21.4054V21.4054Z" fill="white"/>
<path d="M26.7568 21.4054H21.4054V26.7568H26.7568V21.4054Z" fill="white"/>
<path d="M37.4595 21.4054H32.1081V26.7568H37.4595V21.4054Z" fill="white"/>
<path d="M69.5676 21.4054H64.2162L64.2162 26.7568H69.5676V21.4054Z" fill="white"/>
<path d="M74.9189 21.4054H69.5676V26.7568H74.9189V21.4054Z" fill="white"/>
<path d="M85.6216 21.4054H80.2703V26.7568H85.6216L85.6216 21.4054Z" fill="white"/>
<path d="M90.973 21.4054H85.6216L85.6216 26.7568H90.973V21.4054Z" fill="white"/>
<path d="M96.3243 21.4054H90.973V26.7568H96.3243V21.4054Z" fill="white"/>
<path d="M101.676 21.4054H96.3243V26.7568H101.676V21.4054Z" fill="white"/>
<path d="M107.027 21.4054H101.676V26.7568H107.027V21.4054Z" fill="white"/>
<path d="M123.081 21.4054H117.73V26.7568H123.081V21.4054Z" fill="white"/>
<path d="M128.432 21.4054H123.081V26.7568H128.432V21.4054Z" fill="white"/>
<path d="M133.784 21.4054H128.432V26.7568H133.784V21.4054Z" fill="white"/>
<path d="M139.135 21.4054H133.784V26.7568H139.135V21.4054Z" fill="white"/>
<path d="M149.838 21.4054H144.486V26.7568H149.838V21.4054Z" fill="white"/>
<path d="M165.892 21.4054H160.541V26.7568H165.892V21.4054Z" fill="white"/>
<path d="M176.595 21.4054H171.243V26.7568H176.595V21.4054Z" fill="white"/>
<path d="M181.946 21.4054H176.595V26.7568H181.946V21.4054Z" fill="white"/>
<path d="M187.297 21.4054H181.946V26.7568H187.297V21.4054Z" fill="white"/>
<path d="M198 21.4054H192.649V26.7568H198V21.4054Z" fill="white"/>
<path d="M5.35135 26.7568H0V32.1081H5.35135V26.7568Z" fill="white"/>
<path d="M37.4595 26.7568H32.1081V32.1081H37.4595V26.7568Z" fill="white"/>
<path d="M48.1622 26.7568H42.8108V32.1081H48.1622V26.7568Z" fill="white"/>
<path d="M58.8649 26.7568H53.5135V32.1081H58.8649V26.7568Z" fill="white"/>
<path d="M80.2703 26.7568H74.9189V32.1081H80.2703V26.7568Z" fill="white"/>
<path d="M96.3243 26.7568H90.973V32.1081H96.3243V26.7568Z" fill="white"/>
<path d="M107.027 26.7568H101.676V32.1081H107.027V26.7568Z" fill="white"/>
<path d="M112.378 26.7568H107.027V32.1081H112.378V26.7568Z" fill="white"/>
<path d="M123.081 26.7568H117.73V32.1081H123.081V26.7568Z" fill="white"/>
<path d="M128.432 26.7568H123.081V32.1081H128.432V26.7568Z" fill="white"/>
<path d="M139.135 26.7568H133.784V32.1081H139.135V26.7568Z" fill="white"/>
<path d="M149.838 26.7568H144.486V32.1081H149.838V26.7568Z" fill="white"/>
<path d="M155.189 26.7568H149.838V32.1081H155.189V26.7568Z" fill="white"/>
<path d="M165.892 26.7568H160.541V32.1081H165.892V26.7568Z" fill="white"/>
<path d="M198 26.7568H192.649V32.1081H198V26.7568Z" fill="white"/>
<path d="M5.35135 32.1081H0V37.4595H5.35135V32.1081Z" fill="white"/>
<path d="M10.7027 32.1081H5.35135V37.4595H10.7027V32.1081Z" fill="white"/>
<path d="M16.0541 32.1081H10.7027V37.4595H16.0541V32.1081Z" fill="white"/>
<path d="M21.4054 32.1081H16.0541V37.4595H21.4054V32.1081Z" fill="white"/>
<path d="M26.7568 32.1081H21.4054V37.4595H26.7568V32.1081Z" fill="white"/>
<path d="M32.1081 32.1081H26.7568V37.4595H32.1081V32.1081Z" fill="white"/>
<path d="M37.4595 32.1081H32.1081V37.4595H37.4595V32.1081Z" fill="white"/>
<path d="M48.1622 32.1081H42.8108V37.4595H48.1622V32.1081Z" fill="white"/>
<path d="M58.8649 32.1081H53.5135V37.4595H58.8649V32.1081Z" fill="white"/>
<path d="M69.5676 32.1081H64.2162V37.4595H69.5676V32.1081Z" fill="white"/>
<path d="M80.2703 32.1081H74.9189V37.4595H80.2703V32.1081Z" fill="white"/>
<path d="M90.973 32.1081H85.6216V37.4595H90.973V32.1081Z" fill="white"/>
<path d="M101.676 32.1081H96.3243L96.3243 37.4595H101.676V32.1081Z" fill="white"/>
<path d="M112.378 32.1081H107.027V37.4595H112.378V32.1081Z" fill="white"/>
<path d="M123.081 32.1081H117.73V37.4595H123.081V32.1081Z" fill="white"/>
<path d="M133.784 32.1081H128.432V37.4595H133.784V32.1081Z" fill="white"/>
<path d="M144.486 32.1081H139.135V37.4595H144.486V32.1081Z" fill="white"/>
<path d="M155.189 32.1081H149.838V37.4595H155.189V32.1081Z" fill="white"/>
<path d="M165.892 32.1081H160.541V37.4595H165.892V32.1081Z" fill="white"/>
<path d="M171.243 32.1081H165.892V37.4595H171.243V32.1081Z" fill="white"/>
<path d="M176.595 32.1081H171.243V37.4595H176.595V32.1081Z" fill="white"/>
<path d="M181.946 32.1081H176.595V37.4595H181.946V32.1081Z" fill="white"/>
<path d="M187.297 32.1081H181.946V37.4595H187.297V32.1081Z" fill="white"/>
<path d="M192.649 32.1081H187.297V37.4595H192.649V32.1081Z" fill="white"/>
<path d="M198 32.1081H192.649V37.4595H198V32.1081Z" fill="white"/>
<path d="M58.8649 37.4595H53.5135V42.8108H58.8649V37.4595Z" fill="white"/>
<path d="M64.2162 37.4595H58.8649V42.8108H64.2162L64.2162 37.4595Z" fill="white"/>
<path d="M69.5676 37.4595H64.2162L64.2162 42.8108H69.5676V37.4595Z" fill="white"/>
<path d="M74.9189 37.4595H69.5676V42.8108H74.9189V37.4595Z" fill="white"/>
<path d="M80.2703 37.4595H74.9189V42.8108H80.2703V37.4595Z" fill="white"/>
<path d="M107.027 37.4595H101.676V42.8108H107.027V37.4595Z" fill="white"/>
<path d="M112.378 37.4595H107.027V42.8108H112.378V37.4595Z" fill="white"/>
<path d="M117.73 37.4595H112.378V42.8108H117.73V37.4595Z" fill="white"/>
<path d="M155.189 37.4595H149.838V42.8108H155.189V37.4595Z" fill="white"/>
<path d="M10.7027 42.8108H5.35135V48.1622H10.7027V42.8108Z" fill="white"/>
<path d="M16.0541 42.8108H10.7027V48.1622H16.0541V42.8108Z" fill="white"/>
<path d="M37.4595 42.8108H32.1081V48.1622H37.4595V42.8108Z" fill="white"/>
<path d="M53.5135 42.8108H48.1622V48.1622H53.5135V42.8108Z" fill="white"/>
<path d="M58.8649 42.8108H53.5135V48.1622H58.8649V42.8108Z" fill="white"/>
<path d="M69.5676 42.8108H64.2162L64.2162 48.1622H69.5676V42.8108Z" fill="white"/>
<path d="M90.973 42.8108H85.6216V48.1622H90.973V42.8108Z" fill="white"/>
<path d="M96.3243 42.8108H90.973V48.1622H96.3243V42.8108Z" fill="white"/>
<path d="M101.676 42.8108H96.3243V48.1622H101.676V42.8108Z" fill="white"/>
<path d="M117.73 42.8108H112.378V48.1622H117.73V42.8108Z" fill="white"/>
<path d="M133.784 42.8108H128.432V48.1622H133.784V42.8108Z" fill="white"/>
<path d="M144.486 42.8108H139.135V48.1622H144.486V42.8108Z" fill="white"/>
<path d="M149.838 42.8108H144.486V48.1622H149.838V42.8108Z" fill="white"/>
<path d="M155.189 42.8108H149.838V48.1622H155.189V42.8108Z" fill="white"/>
<path d="M160.541 42.8108H155.189V48.1622H160.541V42.8108Z" fill="white"/>
<path d="M171.243 42.8108H165.892V48.1622H171.243V42.8108Z" fill="white"/>
<path d="M181.946 42.8108H176.595V48.1622H181.946V42.8108Z" fill="white"/>
<path d="M187.297 42.8108H181.946V48.1622H187.297V42.8108Z" fill="white"/>
<path d="M192.649 42.8108H187.297V48.1622H192.649V42.8108Z" fill="white"/>
<path d="M10.7027 48.1622H5.35135V53.5135H10.7027V48.1622Z" fill="white"/>
<path d="M21.4054 48.1622H16.0541V53.5135H21.4054V48.1622Z" fill="white"/>
<path d="M26.7568 48.1622H21.4054V53.5135H26.7568V48.1622Z" fill="white"/>
<path d="M42.8108 48.1622H37.4595V53.5135H42.8108V48.1622Z" fill="white"/>
<path d="M53.5135 48.1622H48.1622V53.5135H53.5135V48.1622Z" fill="white"/>
<path d="M69.5676 48.1622H64.2162V53.5135H69.5676V48.1622Z" fill="white"/>
<path d="M80.2703 48.1622H74.9189V53.5135H80.2703V48.1622Z" fill="white"/>
<path d="M85.6216 48.1622H80.2703V53.5135H85.6216L85.6216 48.1622Z" fill="white"/>
<path d="M90.973 48.1622H85.6216L85.6216 53.5135H90.973V48.1622Z" fill="white"/>
<path d="M101.676 48.1622H96.3243L96.3243 53.5135H101.676V48.1622Z" fill="white"/>
<path d="M112.378 48.1622H107.027V53.5135H112.378V48.1622Z" fill="white"/>
<path d="M117.73 48.1622H112.378V53.5135H117.73V48.1622Z" fill="white"/>
<path d="M128.432 48.1622H123.081V53.5135H128.432V48.1622Z" fill="white"/>
<path d="M160.541 48.1622H155.189V53.5135H160.541V48.1622Z" fill="white"/>
<path d="M192.649 48.1622H187.297V53.5135H192.649V48.1622Z" fill="white"/>
<path d="M5.35135 53.5135H0V58.8649H5.35135V53.5135Z" fill="white"/>
<path d="M10.7027 53.5135H5.35135V58.8649H10.7027V53.5135Z" fill="white"/>
<path d="M21.4054 53.5135H16.0541V58.8649H21.4054V53.5135Z" fill="white"/>
<path d="M37.4595 53.5135H32.1081V58.8649H37.4595V53.5135Z" fill="white"/>
<path d="M58.8649 53.5135H53.5135V58.8649H58.8649V53.5135Z" fill="white"/>
<path d="M64.2162 53.5135H58.8649V58.8649H64.2162L64.2162 53.5135Z" fill="white"/>
<path d="M69.5676 53.5135H64.2162L64.2162 58.8649H69.5676V53.5135Z" fill="white"/>
<path d="M74.9189 53.5135H69.5676V58.8649H74.9189V53.5135Z" fill="white"/>
<path d="M80.2703 53.5135H74.9189V58.8649H80.2703V53.5135Z" fill="white"/>
<path d="M85.6216 53.5135H80.2703V58.8649H85.6216V53.5135Z" fill="white"/>
<path d="M90.973 53.5135H85.6216V58.8649H90.973V53.5135Z" fill="white"/>
<path d="M101.676 53.5135H96.3243V58.8649H101.676V53.5135Z" fill="white"/>
<path d="M107.027 53.5135H101.676V58.8649H107.027V53.5135Z" fill="white"/>
<path d="M112.378 53.5135H107.027V58.8649H112.378V53.5135Z" fill="white"/>
<path d="M117.73 53.5135H112.378V58.8649H117.73V53.5135Z" fill="white"/>
<path d="M128.432 53.5135H123.081V58.8649H128.432V53.5135Z" fill="white"/>
<path d="M133.784 53.5135H128.432V58.8649H133.784V53.5135Z" fill="white"/>
<path d="M139.135 53.5135H133.784V58.8649H139.135V53.5135Z" fill="white"/>
<path d="M165.892 53.5135H160.541V58.8649H165.892V53.5135Z" fill="white"/>
<path d="M171.243 53.5135H165.892V58.8649H171.243V53.5135Z" fill="white"/>
<path d="M187.297 53.5135H181.946V58.8649H187.297V53.5135Z" fill="white"/>
<path d="M192.649 53.5135H187.297V58.8649H192.649V53.5135Z" fill="white"/>
<path d="M198 53.5135H192.649V58.8649H198V53.5135Z" fill="white"/>
<path d="M5.35135 58.8649H0V64.2162H5.35135V58.8649Z" fill="white"/>
<path d="M32.1081 58.8649H26.7568V64.2162H32.1081V58.8649Z" fill="white"/>
<path d="M48.1622 58.8649H42.8108V64.2162H48.1622V58.8649Z" fill="white"/>
<path d="M53.5135 58.8649H48.1622V64.2162H53.5135V58.8649Z" fill="white"/>
<path d="M64.2162 58.8649H58.8649V64.2162H64.2162V58.8649Z" fill="white"/>
<path d="M80.2703 58.8649H74.9189V64.2162H80.2703V58.8649Z" fill="white"/>
<path d="M112.378 58.8649H107.027V64.2162H112.378V58.8649Z" fill="white"/>
<path d="M123.081 58.8649H117.73V64.2162H123.081V58.8649Z" fill="white"/>
<path d="M128.432 58.8649H123.081V64.2162H128.432V58.8649Z" fill="white"/>
<path d="M133.784 58.8649H128.432V64.2162H133.784V58.8649Z" fill="white"/>
<path d="M144.486 58.8649H139.135V64.2162H144.486V58.8649Z" fill="white"/>
<path d="M149.838 58.8649H144.486V64.2162H149.838V58.8649Z" fill="white"/>
<path d="M160.541 58.8649H155.189V64.2162H160.541V58.8649Z" fill="white"/>
<path d="M176.595 58.8649H171.243V64.2162H176.595V58.8649Z" fill="white"/>
<path d="M5.35135 64.2162H0V69.5676H5.35135V64.2162Z" fill="white"/>
<path d="M10.7027 64.2162L5.35135 64.2162V69.5676H10.7027V64.2162Z" fill="white"/>
<path d="M16.0541 64.2162H10.7027V69.5676H16.0541V64.2162Z" fill="white"/>
<path d="M26.7568 64.2162L21.4054 64.2162V69.5676H26.7568V64.2162Z" fill="white"/>
<path d="M32.1081 64.2162H26.7568V69.5676H32.1081V64.2162Z" fill="white"/>
<path d="M37.4595 64.2162L32.1081 64.2162V69.5676H37.4595V64.2162Z" fill="white"/>
<path d="M42.8108 64.2162L37.4595 64.2162V69.5676H42.8108V64.2162Z" fill="white"/>
<path d="M53.5135 64.2162H48.1622V69.5676H53.5135V64.2162Z" fill="white"/>
<path d="M64.2162 64.2162H58.8649V69.5676H64.2162V64.2162Z" fill="white"/>
<path d="M69.5676 64.2162L64.2162 64.2162V69.5676H69.5676V64.2162Z" fill="white"/>
<path d="M80.2703 64.2162H74.9189V69.5676H80.2703V64.2162Z" fill="white"/>
<path d="M90.973 64.2162H85.6216V69.5676H90.973V64.2162Z" fill="white"/>
<path d="M112.378 64.2162H107.027V69.5676H112.378V64.2162Z" fill="white"/>
<path d="M117.73 64.2162H112.378V69.5676H117.73V64.2162Z" fill="white"/>
<path d="M123.081 64.2162H117.73V69.5676H123.081V64.2162Z" fill="white"/>
<path d="M133.784 64.2162H128.432V69.5676H133.784V64.2162Z" fill="white"/>
<path d="M139.135 64.2162H133.784V69.5676H139.135V64.2162Z" fill="white"/>
<path d="M149.838 64.2162H144.486V69.5676H149.838V64.2162Z" fill="white"/>
<path d="M155.189 64.2162H149.838V69.5676H155.189V64.2162Z" fill="white"/>
<path d="M165.892 64.2162L160.541 64.2162V69.5676H165.892V64.2162Z" fill="white"/>
<path d="M171.243 64.2162L165.892 64.2162V69.5676H171.243V64.2162Z" fill="white"/>
<path d="M176.595 64.2162H171.243V69.5676H176.595V64.2162Z" fill="white"/>
<path d="M181.946 64.2162L176.595 64.2162V69.5676H181.946V64.2162Z" fill="white"/>
<path d="M187.297 64.2162H181.946V69.5676H187.297V64.2162Z" fill="white"/>
<path d="M21.4054 69.5676H16.0541V74.9189H21.4054V69.5676Z" fill="white"/>
<path d="M32.1081 69.5676H26.7568V74.9189H32.1081V69.5676Z" fill="white"/>
<path d="M48.1622 69.5676H42.8108V74.9189H48.1622V69.5676Z" fill="white"/>
<path d="M53.5135 69.5676H48.1622V74.9189H53.5135V69.5676Z" fill="white"/>
<path d="M58.8649 69.5676H53.5135V74.9189H58.8649V69.5676Z" fill="white"/>
<path d="M69.5676 69.5676H64.2162L64.2162 74.9189H69.5676V69.5676Z" fill="white"/>
<path d="M85.6216 69.5676H80.2703V74.9189H85.6216L85.6216 69.5676Z" fill="white"/>
<path d="M90.973 69.5676H85.6216L85.6216 74.9189H90.973V69.5676Z" fill="white"/>
<path d="M96.3243 69.5676L90.973 69.5676V74.9189H96.3243V69.5676Z" fill="white"/>
<path d="M101.676 69.5676H96.3243V74.9189H101.676V69.5676Z" fill="white"/>
<path d="M107.027 69.5676L101.676 69.5676V74.9189H107.027V69.5676Z" fill="white"/>
<path d="M123.081 69.5676H117.73V74.9189H123.081V69.5676Z" fill="white"/>
<path d="M144.486 69.5676H139.135V74.9189H144.486V69.5676Z" fill="white"/>
<path d="M155.189 69.5676H149.838V74.9189H155.189V69.5676Z" fill="white"/>
<path d="M171.243 69.5676H165.892V74.9189H171.243V69.5676Z" fill="white"/>
<path d="M176.595 69.5676H171.243V74.9189H176.595V69.5676Z" fill="white"/>
<path d="M181.946 69.5676H176.595V74.9189H181.946V69.5676Z" fill="white"/>
<path d="M187.297 69.5676H181.946V74.9189H187.297V69.5676Z" fill="white"/>
<path d="M192.649 69.5676L187.297 69.5676V74.9189H192.649V69.5676Z" fill="white"/>
<path d="M198 69.5676H192.649V74.9189H198V69.5676Z" fill="white"/>
<path d="M10.7027 74.9189H5.35135V80.2703H10.7027V74.9189Z" fill="white"/>
<path d="M21.4054 74.9189H16.0541V80.2703H21.4054V74.9189Z" fill="white"/>
<path d="M37.4595 74.9189H32.1081V80.2703H37.4595V74.9189Z" fill="white"/>
<path d="M42.8108 74.9189H37.4595V80.2703H42.8108V74.9189Z" fill="white"/>
<path d="M48.1622 74.9189H42.8108V80.2703H48.1622V74.9189Z" fill="white"/>
<path d="M53.5135 74.9189H48.1622V80.2703H53.5135V74.9189Z" fill="white"/>
<path d="M64.2162 74.9189H58.8649V80.2703H64.2162L64.2162 74.9189Z" fill="white"/>
<path d="M80.2703 74.9189H74.9189V80.2703H80.2703V74.9189Z" fill="white"/>
<path d="M90.973 74.9189H85.6216L85.6216 80.2703H90.973V74.9189Z" fill="white"/>
<path d="M101.676 74.9189H96.3243L96.3243 80.2703H101.676V74.9189Z" fill="white"/>
<path d="M123.081 74.9189H117.73V80.2703H123.081V74.9189Z" fill="white"/>
<path d="M128.432 74.9189H123.081V80.2703H128.432V74.9189Z" fill="white"/>
<path d="M133.784 74.9189H128.432V80.2703H133.784V74.9189Z" fill="white"/>
<path d="M160.541 74.9189H155.189V80.2703H160.541V74.9189Z" fill="white"/>
<path d="M192.649 74.9189H187.297V80.2703H192.649V74.9189Z" fill="white"/>
<path d="M198 74.9189H192.649V80.2703H198V74.9189Z" fill="white"/>
<path d="M5.35135 80.2703H0V85.6216H5.35135V80.2703Z" fill="white"/>
<path d="M21.4054 80.2703H16.0541V85.6216H21.4054V80.2703Z" fill="white"/>
<path d="M26.7568 80.2703H21.4054V85.6216H26.7568V80.2703Z" fill="white"/>
<path d="M42.8108 80.2703H37.4595V85.6216H42.8108V80.2703Z" fill="white"/>
<path d="M48.1622 80.2703H42.8108V85.6216H48.1622V80.2703Z" fill="white"/>
<path d="M53.5135 80.2703H48.1622V85.6216H53.5135V80.2703Z" fill="white"/>
<path d="M74.9189 80.2703H69.5676V85.6216H74.9189V80.2703Z" fill="white"/>
<path d="M90.973 80.2703H85.6216V85.6216H90.973V80.2703Z" fill="white"/>
<path d="M117.73 80.2703H112.378V85.6216H117.73V80.2703Z" fill="white"/>
<path d="M123.081 80.2703H117.73V85.6216H123.081V80.2703Z" fill="white"/>
<path d="M133.784 80.2703H128.432V85.6216H133.784V80.2703Z" fill="white"/>
<path d="M149.838 80.2703H144.486V85.6216H149.838V80.2703Z" fill="white"/>
<path d="M160.541 80.2703H155.189V85.6216H160.541V80.2703Z" fill="white"/>
<path d="M171.243 80.2703H165.892V85.6216H171.243V80.2703Z" fill="white"/>
<path d="M198 80.2703H192.649V85.6216H198V80.2703Z" fill="white"/>
<path d="M5.35135 85.6216H0V90.973H5.35135V85.6216Z" fill="white"/>
<path d="M16.0541 85.6216L10.7027 85.6216V90.973H16.0541V85.6216Z" fill="white"/>
<path d="M21.4054 85.6216H16.0541V90.973H21.4054V85.6216Z" fill="white"/>
<path d="M37.4595 85.6216L32.1081 85.6216V90.973H37.4595V85.6216Z" fill="white"/>
<path d="M42.8108 85.6216H37.4595V90.973H42.8108V85.6216Z" fill="white"/>
<path d="M48.1622 85.6216H42.8108V90.973H48.1622V85.6216Z" fill="white"/>
<path d="M80.2703 85.6216L74.9189 85.6216V90.973H80.2703V85.6216Z" fill="white"/>
<path d="M85.6216 85.6216L80.2703 85.6216V90.973H85.6216L85.6216 85.6216Z" fill="white"/>
<path d="M90.973 85.6216H85.6216L85.6216 90.973H90.973V85.6216Z" fill="white"/>
<path d="M101.676 85.6216H96.3243V90.973H101.676V85.6216Z" fill="white"/>
<path d="M107.027 85.6216H101.676V90.973H107.027V85.6216Z" fill="white"/>
<path d="M117.73 85.6216H112.378V90.973H117.73V85.6216Z" fill="white"/>
<path d="M128.432 85.6216H123.081V90.973H128.432V85.6216Z" fill="white"/>
<path d="M133.784 85.6216H128.432V90.973H133.784V85.6216Z" fill="white"/>
<path d="M144.486 85.6216L139.135 85.6216V90.973H144.486V85.6216Z" fill="white"/>
<path d="M155.189 85.6216H149.838V90.973H155.189V85.6216Z" fill="white"/>
<path d="M160.541 85.6216H155.189V90.973H160.541V85.6216Z" fill="white"/>
<path d="M192.649 85.6216L187.297 85.6216V90.973H192.649V85.6216Z" fill="white"/>
<path d="M10.7027 90.973H5.35135V96.3243H10.7027V90.973Z" fill="white"/>
<path d="M26.7568 90.973H21.4054V96.3243H26.7568V90.973Z" fill="white"/>
<path d="M32.1081 90.973H26.7568V96.3243H32.1081V90.973Z" fill="white"/>
<path d="M42.8108 90.973H37.4595V96.3243H42.8108V90.973Z" fill="white"/>
<path d="M58.8649 90.973H53.5135V96.3243H58.8649V90.973Z" fill="white"/>
<path d="M69.5676 90.973H64.2162V96.3243H69.5676V90.973Z" fill="white"/>
<path d="M90.973 90.973H85.6216L85.6216 96.3243H90.973V90.973Z" fill="white"/>
<path d="M101.676 90.973H96.3243V96.3243H101.676V90.973Z" fill="white"/>
<path d="M117.73 90.973H112.378V96.3243H117.73V90.973Z" fill="white"/>
<path d="M123.081 90.973H117.73V96.3243H123.081V90.973Z" fill="white"/>
<path d="M128.432 90.973H123.081V96.3243H128.432V90.973Z" fill="white"/>
<path d="M133.784 90.973H128.432V96.3243H133.784V90.973Z" fill="white"/>
<path d="M139.135 90.973H133.784V96.3243H139.135V90.973Z" fill="white"/>
<path d="M149.838 90.973H144.486V96.3243H149.838V90.973Z" fill="white"/>
<path d="M176.595 90.973H171.243V96.3243H176.595V90.973Z" fill="white"/>
<path d="M181.946 90.973H176.595V96.3243H181.946V90.973Z" fill="white"/>
<path d="M192.649 90.973H187.297V96.3243H192.649V90.973Z" fill="white"/>
<path d="M198 90.973H192.649V96.3243H198V90.973Z" fill="white"/>
<path d="M5.35135 96.3243L0 96.3243V101.676H5.35135V96.3243Z" fill="white"/>
<path d="M21.4054 96.3243L16.0541 96.3243V101.676H21.4054V96.3243Z" fill="white"/>
<path d="M26.7568 96.3243H21.4054V101.676H26.7568V96.3243Z" fill="white"/>
<path d="M32.1081 96.3243H26.7568V101.676H32.1081V96.3243Z" fill="white"/>
<path d="M37.4595 96.3243H32.1081V101.676H37.4595V96.3243Z" fill="white"/>
<path d="M53.5135 96.3243L48.1622 96.3243V101.676H53.5135V96.3243Z" fill="white"/>
<path d="M64.2162 96.3243H58.8649V101.676H64.2162L64.2162 96.3243Z" fill="white"/>
<path d="M74.9189 96.3243L69.5676 96.3243L69.5676 101.676H74.9189V96.3243Z" fill="white"/>
<path d="M80.2703 96.3243H74.9189V101.676H80.2703V96.3243Z" fill="white"/>
<path d="M85.6216 96.3243L80.2703 96.3243V101.676H85.6216L85.6216 96.3243Z" fill="white"/>
<path d="M90.973 96.3243H85.6216L85.6216 101.676H90.973V96.3243Z" fill="white"/>
<path d="M96.3243 96.3243H90.973V101.676H96.3243L96.3243 96.3243Z" fill="white"/>
<path d="M101.676 96.3243H96.3243L96.3243 101.676H101.676V96.3243Z" fill="white"/>
<path d="M112.378 96.3243L107.027 96.3243V101.676H112.378V96.3243Z" fill="white"/>
<path d="M117.73 96.3243H112.378V101.676H117.73V96.3243Z" fill="white"/>
<path d="M128.432 96.3243H123.081V101.676H128.432V96.3243Z" fill="white"/>
<path d="M133.784 96.3243H128.432V101.676H133.784V96.3243Z" fill="white"/>
<path d="M139.135 96.3243H133.784V101.676H139.135V96.3243Z" fill="white"/>
<path d="M144.486 96.3243H139.135V101.676H144.486V96.3243Z" fill="white"/>
<path d="M149.838 96.3243H144.486V101.676H149.838V96.3243Z" fill="white"/>
<path d="M155.189 96.3243L149.838 96.3243V101.676H155.189V96.3243Z" fill="white"/>
<path d="M160.541 96.3243H155.189V101.676H160.541V96.3243Z" fill="white"/>
<path d="M165.892 96.3243H160.541V101.676H165.892V96.3243Z" fill="white"/>
<path d="M176.595 96.3243H171.243V101.676H176.595V96.3243Z" fill="white"/>
<path d="M187.297 96.3243H181.946V101.676H187.297V96.3243Z" fill="white"/>
<path d="M198 96.3243H192.649V101.676H198V96.3243Z" fill="white"/>
<path d="M10.7027 101.676H5.35135V107.027H10.7027V101.676Z" fill="white"/>
<path d="M53.5135 101.676H48.1622V107.027H53.5135V101.676Z" fill="white"/>
<path d="M64.2162 101.676H58.8649V107.027H64.2162V101.676Z" fill="white"/>
<path d="M69.5676 101.676H64.2162V107.027H69.5676L69.5676 101.676Z" fill="white"/>
<path d="M74.9189 101.676H69.5676L69.5676 107.027H74.9189V101.676Z" fill="white"/>
<path d="M80.2703 101.676H74.9189V107.027H80.2703V101.676Z" fill="white"/>
<path d="M85.6216 101.676H80.2703V107.027H85.6216V101.676Z" fill="white"/>
<path d="M90.973 101.676H85.6216V107.027H90.973V101.676Z" fill="white"/>
<path d="M96.3243 101.676H90.973V107.027H96.3243V101.676Z" fill="white"/>
<path d="M107.027 101.676H101.676V107.027H107.027V101.676Z" fill="white"/>
<path d="M112.378 101.676H107.027V107.027H112.378V101.676Z" fill="white"/>
<path d="M123.081 101.676H117.73V107.027H123.081V101.676Z" fill="white"/>
<path d="M128.432 101.676H123.081V107.027H128.432V101.676Z" fill="white"/>
<path d="M139.135 101.676H133.784V107.027H139.135V101.676Z" fill="white"/>
<path d="M144.486 101.676H139.135V107.027H144.486V101.676Z" fill="white"/>
<path d="M149.838 101.676H144.486V107.027H149.838V101.676Z" fill="white"/>
<path d="M187.297 101.676H181.946V107.027H187.297V101.676Z" fill="white"/>
<path d="M198 101.676H192.649V107.027H198V101.676Z" fill="white"/>
<path d="M37.4595 107.027H32.1081V112.378H37.4595V107.027Z" fill="white"/>
<path d="M48.1622 107.027H42.8108V112.378H48.1622V107.027Z" fill="white"/>
<path d="M53.5135 107.027H48.1622V112.378H53.5135V107.027Z" fill="white"/>
<path d="M58.8649 107.027H53.5135V112.378H58.8649V107.027Z" fill="white"/>
<path d="M64.2162 107.027H58.8649V112.378H64.2162V107.027Z" fill="white"/>
<path d="M74.9189 107.027H69.5676L69.5676 112.378H74.9189V107.027Z" fill="white"/>
<path d="M80.2703 107.027H74.9189V112.378H80.2703V107.027Z" fill="white"/>
<path d="M85.6216 107.027H80.2703V112.378H85.6216V107.027Z" fill="white"/>
<path d="M90.973 107.027H85.6216V112.378H90.973V107.027Z" fill="white"/>
<path d="M107.027 107.027H101.676V112.378H107.027V107.027Z" fill="white"/>
<path d="M117.73 107.027H112.378V112.378H117.73V107.027Z" fill="white"/>
<path d="M123.081 107.027H117.73V112.378H123.081V107.027Z" fill="white"/>
<path d="M133.784 107.027H128.432V112.378H133.784V107.027Z" fill="white"/>
<path d="M139.135 107.027H133.784V112.378H139.135V107.027Z" fill="white"/>
<path d="M160.541 107.027H155.189V112.378H160.541V107.027Z" fill="white"/>
<path d="M165.892 107.027H160.541V112.378H165.892V107.027Z" fill="white"/>
<path d="M181.946 107.027H176.595V112.378H181.946V107.027Z" fill="white"/>
<path d="M187.297 107.027H181.946V112.378H187.297V107.027Z" fill="white"/>
<path d="M192.649 107.027H187.297V112.378H192.649V107.027Z" fill="white"/>
<path d="M198 107.027H192.649V112.378H198V107.027Z" fill="white"/>
<path d="M5.35135 112.378H0V117.73H5.35135V112.378Z" fill="white"/>
<path d="M10.7027 112.378H5.35135V117.73H10.7027V112.378Z" fill="white"/>
<path d="M48.1622 112.378H42.8108V117.73H48.1622V112.378Z" fill="white"/>
<path d="M53.5135 112.378H48.1622V117.73H53.5135V112.378Z" fill="white"/>
<path d="M58.8649 112.378H53.5135V117.73H58.8649V112.378Z" fill="white"/>
<path d="M74.9189 112.378H69.5676V117.73H74.9189V112.378Z" fill="white"/>
<path d="M80.2703 112.378H74.9189V117.73H80.2703V112.378Z" fill="white"/>
<path d="M96.3243 112.378H90.973V117.73H96.3243V112.378Z" fill="white"/>
<path d="M112.378 112.378H107.027V117.73H112.378V112.378Z" fill="white"/>
<path d="M117.73 112.378H112.378V117.73H117.73V112.378Z" fill="white"/>
<path d="M149.838 112.378H144.486V117.73H149.838V112.378Z" fill="white"/>
<path d="M155.189 112.378H149.838V117.73H155.189V112.378Z" fill="white"/>
<path d="M165.892 112.378H160.541V117.73H165.892V112.378Z" fill="white"/>
<path d="M181.946 112.378H176.595V117.73H181.946V112.378Z" fill="white"/>
<path d="M187.297 112.378H181.946V117.73H187.297V112.378Z" fill="white"/>
<path d="M5.35135 117.73H0V123.081H5.35135V117.73Z" fill="white"/>
<path d="M32.1081 117.73H26.7568V123.081H32.1081V117.73Z" fill="white"/>
<path d="M37.4595 117.73H32.1081V123.081H37.4595V117.73Z" fill="white"/>
<path d="M42.8108 117.73H37.4595V123.081H42.8108V117.73Z" fill="white"/>
<path d="M53.5135 117.73H48.1622V123.081H53.5135V117.73Z" fill="white"/>
<path d="M58.8649 117.73H53.5135V123.081H58.8649V117.73Z" fill="white"/>
<path d="M74.9189 117.73H69.5676V123.081H74.9189V117.73Z" fill="white"/>
<path d="M90.973 117.73H85.6216V123.081H90.973V117.73Z" fill="white"/>
<path d="M96.3243 117.73H90.973V123.081H96.3243V117.73Z" fill="white"/>
<path d="M101.676 117.73H96.3243V123.081H101.676V117.73Z" fill="white"/>
<path d="M128.432 117.73H123.081V123.081H128.432V117.73Z" fill="white"/>
<path d="M133.784 117.73H128.432V123.081H133.784V117.73Z" fill="white"/>
<path d="M139.135 117.73H133.784V123.081H139.135V117.73Z" fill="white"/>
<path d="M149.838 117.73H144.486V123.081H149.838V117.73Z" fill="white"/>
<path d="M171.243 117.73H165.892V123.081H171.243V117.73Z" fill="white"/>
<path d="M176.595 117.73H171.243V123.081H176.595V117.73Z" fill="white"/>
<path d="M181.946 117.73H176.595V123.081H181.946V117.73Z" fill="white"/>
<path d="M192.649 117.73H187.297V123.081H192.649V117.73Z" fill="white"/>
<path d="M10.7027 123.081H5.35135V128.432H10.7027V123.081Z" fill="white"/>
<path d="M53.5135 123.081H48.1622V128.432H53.5135V123.081Z" fill="white"/>
<path d="M58.8649 123.081H53.5135V128.432H58.8649V123.081Z" fill="white"/>
<path d="M64.2162 123.081H58.8649V128.432H64.2162V123.081Z" fill="white"/>
<path d="M69.5676 123.081H64.2162V128.432H69.5676L69.5676 123.081Z" fill="white"/>
<path d="M90.973 123.081H85.6216V128.432H90.973V123.081Z" fill="white"/>
<path d="M101.676 123.081H96.3243L96.3243 128.432H101.676V123.081Z" fill="white"/>
<path d="M112.378 123.081H107.027V128.432H112.378V123.081Z" fill="white"/>
<path d="M117.73 123.081H112.378V128.432H117.73V123.081Z" fill="white"/>
<path d="M123.081 123.081H117.73V128.432H123.081V123.081Z" fill="white"/>
<path d="M149.838 123.081H144.486V128.432H149.838V123.081Z" fill="white"/>
<path d="M155.189 123.081H149.838V128.432H155.189V123.081Z" fill="white"/>
<path d="M160.541 123.081H155.189V128.432H160.541V123.081Z" fill="white"/>
<path d="M171.243 123.081H165.892V128.432H171.243V123.081Z" fill="white"/>
<path d="M187.297 123.081H181.946V128.432H187.297V123.081Z" fill="white"/>
<path d="M198 123.081H192.649V128.432H198V123.081Z" fill="white"/>
<path d="M5.35135 128.432H0V133.784H5.35135V128.432Z" fill="white"/>
<path d="M10.7027 128.432H5.35135V133.784H10.7027V128.432Z" fill="white"/>
<path d="M37.4595 128.432H32.1081V133.784H37.4595V128.432Z" fill="white"/>
<path d="M42.8108 128.432H37.4595V133.784H42.8108V128.432Z" fill="white"/>
<path d="M58.8649 128.432H53.5135V133.784H58.8649V128.432Z" fill="white"/>
<path d="M64.2162 128.432H58.8649V133.784H64.2162V128.432Z" fill="white"/>
<path d="M74.9189 128.432H69.5676L69.5676 133.784H74.9189V128.432Z" fill="white"/>
<path d="M85.6216 128.432H80.2703V133.784H85.6216L85.6216 128.432Z" fill="white"/>
<path d="M96.3243 128.432H90.973V133.784H96.3243L96.3243 128.432Z" fill="white"/>
<path d="M101.676 128.432H96.3243L96.3243 133.784H101.676V128.432Z" fill="white"/>
<path d="M107.027 128.432H101.676V133.784H107.027V128.432Z" fill="white"/>
<path d="M112.378 128.432H107.027V133.784H112.378V128.432Z" fill="white"/>
<path d="M117.73 128.432H112.378V133.784H117.73V128.432Z" fill="white"/>
<path d="M128.432 128.432H123.081V133.784H128.432V128.432Z" fill="white"/>
<path d="M133.784 128.432H128.432V133.784H133.784V128.432Z" fill="white"/>
<path d="M144.486 128.432H139.135V133.784H144.486V128.432Z" fill="white"/>
<path d="M149.838 128.432H144.486V133.784H149.838V128.432Z" fill="white"/>
<path d="M155.189 128.432H149.838V133.784H155.189V128.432Z" fill="white"/>
<path d="M160.541 128.432H155.189V133.784H160.541V128.432Z" fill="white"/>
<path d="M165.892 128.432H160.541V133.784H165.892V128.432Z" fill="white"/>
<path d="M181.946 128.432H176.595V133.784H181.946V128.432Z" fill="white"/>
<path d="M198 128.432H192.649V133.784H198V128.432Z" fill="white"/>
<path d="M5.35135 133.784H0V139.135H5.35135V133.784Z" fill="white"/>
<path d="M10.7027 133.784H5.35135V139.135H10.7027V133.784Z" fill="white"/>
<path d="M16.0541 133.784H10.7027V139.135H16.0541V133.784Z" fill="white"/>
<path d="M21.4054 133.784H16.0541V139.135H21.4054V133.784Z" fill="white"/>
<path d="M32.1081 133.784H26.7568V139.135H32.1081V133.784Z" fill="white"/>
<path d="M53.5135 133.784H48.1622V139.135H53.5135V133.784Z" fill="white"/>
<path d="M58.8649 133.784H53.5135V139.135H58.8649V133.784Z" fill="white"/>
<path d="M64.2162 133.784H58.8649V139.135H64.2162V133.784Z" fill="white"/>
<path d="M69.5676 133.784H64.2162V139.135H69.5676L69.5676 133.784Z" fill="white"/>
<path d="M74.9189 133.784H69.5676L69.5676 139.135H74.9189V133.784Z" fill="white"/>
<path d="M90.973 133.784H85.6216L85.6216 139.135H90.973V133.784Z" fill="white"/>
<path d="M101.676 133.784H96.3243L96.3243 139.135H101.676V133.784Z" fill="white"/>
<path d="M117.73 133.784H112.378V139.135H117.73V133.784Z" fill="white"/>
<path d="M128.432 133.784H123.081V139.135H128.432V133.784Z" fill="white"/>
<path d="M133.784 133.784H128.432V139.135H133.784V133.784Z" fill="white"/>
<path d="M144.486 133.784H139.135V139.135H144.486V133.784Z" fill="white"/>
<path d="M155.189 133.784H149.838V139.135H155.189V133.784Z" fill="white"/>
<path d="M160.541 133.784H155.189V139.135H160.541V133.784Z" fill="white"/>
<path d="M181.946 133.784H176.595V139.135H181.946V133.784Z" fill="white"/>
<path d="M192.649 133.784H187.297V139.135H192.649V133.784Z" fill="white"/>
<path d="M198 133.784H192.649V139.135H198V133.784Z" fill="white"/>
<path d="M16.0541 139.135H10.7027V144.486H16.0541V139.135Z" fill="white"/>
<path d="M26.7568 139.135H21.4054V144.486H26.7568V139.135Z" fill="white"/>
<path d="M32.1081 139.135H26.7568V144.486H32.1081V139.135Z" fill="white"/>
<path d="M37.4595 139.135H32.1081V144.486H37.4595V139.135Z" fill="white"/>
<path d="M42.8108 139.135H37.4595V144.486H42.8108V139.135Z" fill="white"/>
<path d="M53.5135 139.135H48.1622V144.486H53.5135V139.135Z" fill="white"/>
<path d="M64.2162 139.135H58.8649V144.486H64.2162V139.135Z" fill="white"/>
<path d="M69.5676 139.135H64.2162V144.486H69.5676V139.135Z" fill="white"/>
<path d="M74.9189 139.135H69.5676V144.486H74.9189V139.135Z" fill="white"/>
<path d="M80.2703 139.135H74.9189V144.486H80.2703V139.135Z" fill="white"/>
<path d="M85.6216 139.135H80.2703V144.486H85.6216L85.6216 139.135Z" fill="white"/>
<path d="M96.3243 139.135H90.973V144.486H96.3243L96.3243 139.135Z" fill="white"/>
<path d="M101.676 139.135H96.3243L96.3243 144.486H101.676V139.135Z" fill="white"/>
<path d="M112.378 139.135H107.027V144.486H112.378V139.135Z" fill="white"/>
<path d="M128.432 139.135H123.081V144.486H128.432V139.135Z" fill="white"/>
<path d="M149.838 139.135H144.486V144.486H149.838V139.135Z" fill="white"/>
<path d="M160.541 139.135H155.189V144.486H160.541V139.135Z" fill="white"/>
<path d="M165.892 139.135H160.541V144.486H165.892V139.135Z" fill="white"/>
<path d="M176.595 139.135H171.243V144.486H176.595V139.135Z" fill="white"/>
<path d="M181.946 139.135H176.595V144.486H181.946V139.135Z" fill="white"/>
<path d="M187.297 139.135H181.946V144.486H187.297V139.135Z" fill="white"/>
<path d="M192.649 139.135H187.297V144.486H192.649V139.135Z" fill="white"/>
<path d="M198 139.135H192.649V144.486H198V139.135Z" fill="white"/>
<path d="M26.7568 144.486H21.4054V149.838H26.7568V144.486Z" fill="white"/>
<path d="M42.8108 144.486H37.4595V149.838H42.8108V144.486Z" fill="white"/>
<path d="M48.1622 144.486H42.8108V149.838H48.1622V144.486Z" fill="white"/>
<path d="M74.9189 144.486H69.5676L69.5676 149.838H74.9189V144.486Z" fill="white"/>
<path d="M96.3243 144.486H90.973V149.838H96.3243V144.486Z" fill="white"/>
<path d="M101.676 144.486H96.3243V149.838H101.676V144.486Z" fill="white"/>
<path d="M107.027 144.486H101.676V149.838H107.027V144.486Z" fill="white"/>
<path d="M112.378 144.486H107.027V149.838H112.378V144.486Z" fill="white"/>
<path d="M128.432 144.486H123.081V149.838H128.432V144.486Z" fill="white"/>
<path d="M139.135 144.486H133.784V149.838H139.135V144.486Z" fill="white"/>
<path d="M155.189 144.486H149.838V149.838H155.189V144.486Z" fill="white"/>
<path d="M160.541 144.486H155.189V149.838H160.541V144.486Z" fill="white"/>
<path d="M171.243 144.486H165.892V149.838H171.243V144.486Z" fill="white"/>
<path d="M181.946 144.486H176.595V149.838H181.946V144.486Z" fill="white"/>
<path d="M10.7027 149.838H5.35135V155.189H10.7027V149.838Z" fill="white"/>
<path d="M37.4595 149.838H32.1081V155.189H37.4595V149.838Z" fill="white"/>
<path d="M42.8108 149.838H37.4595V155.189H42.8108V149.838Z" fill="white"/>
<path d="M53.5135 149.838H48.1622V155.189H53.5135V149.838Z" fill="white"/>
<path d="M58.8649 149.838H53.5135V155.189H58.8649V149.838Z" fill="white"/>
<path d="M74.9189 149.838H69.5676V155.189H74.9189V149.838Z" fill="white"/>
<path d="M80.2703 149.838H74.9189V155.189H80.2703V149.838Z" fill="white"/>
<path d="M101.676 149.838H96.3243L96.3243 155.189H101.676V149.838Z" fill="white"/>
<path d="M107.027 149.838H101.676V155.189H107.027V149.838Z" fill="white"/>
<path d="M112.378 149.838H107.027V155.189H112.378V149.838Z" fill="white"/>
<path d="M128.432 149.838H123.081V155.189H128.432V149.838Z" fill="white"/>
<path d="M139.135 149.838H133.784V155.189H139.135V149.838Z" fill="white"/>
<path d="M149.838 149.838H144.486V155.189H149.838V149.838Z" fill="white"/>
<path d="M155.189 149.838H149.838V155.189H155.189V149.838Z" fill="white"/>
<path d="M160.541 149.838H155.189V155.189H160.541V149.838Z" fill="white"/>
<path d="M165.892 149.838H160.541V155.189H165.892V149.838Z" fill="white"/>
<path d="M171.243 149.838H165.892V155.189H171.243V149.838Z" fill="white"/>
<path d="M176.595 149.838H171.243V155.189H176.595V149.838Z" fill="white"/>
<path d="M53.5135 155.189H48.1622V160.541H53.5135V155.189Z" fill="white"/>
<path d="M58.8649 155.189H53.5135V160.541H58.8649V155.189Z" fill="white"/>
<path d="M69.5676 155.189H64.2162V160.541H69.5676L69.5676 155.189Z" fill="white"/>
<path d="M80.2703 155.189H74.9189V160.541H80.2703V155.189Z" fill="white"/>
<path d="M101.676 155.189H96.3243V160.541H101.676V155.189Z" fill="white"/>
<path d="M112.378 155.189H107.027V160.541H112.378V155.189Z" fill="white"/>
<path d="M117.73 155.189H112.378V160.541H117.73V155.189Z" fill="white"/>
<path d="M123.081 155.189H117.73V160.541H123.081V155.189Z" fill="white"/>
<path d="M149.838 155.189H144.486V160.541H149.838V155.189Z" fill="white"/>
<path d="M155.189 155.189H149.838V160.541H155.189V155.189Z" fill="white"/>
<path d="M176.595 155.189H171.243V160.541H176.595V155.189Z" fill="white"/>
<path d="M198 155.189H192.649V160.541H198V155.189Z" fill="white"/>
<path d="M5.35135 160.541H0V165.892H5.35135V160.541Z" fill="white"/>
<path d="M10.7027 160.541H5.35135V165.892H10.7027V160.541Z" fill="white"/>
<path d="M16.0541 160.541H10.7027V165.892H16.0541V160.541Z" fill="white"/>
<path d="M21.4054 160.541H16.0541V165.892H21.4054V160.541Z" fill="white"/>
<path d="M26.7568 160.541H21.4054V165.892H26.7568V160.541Z" fill="white"/>
<path d="M32.1081 160.541H26.7568V165.892H32.1081V160.541Z" fill="white"/>
<path d="M37.4595 160.541H32.1081V165.892H37.4595V160.541Z" fill="white"/>
<path d="M69.5676 160.541H64.2162V165.892H69.5676V160.541Z" fill="white"/>
<path d="M74.9189 160.541H69.5676V165.892H74.9189V160.541Z" fill="white"/>
<path d="M80.2703 160.541H74.9189V165.892H80.2703V160.541Z" fill="white"/>
<path d="M96.3243 160.541H90.973V165.892H96.3243L96.3243 160.541Z" fill="white"/>
<path d="M123.081 160.541H117.73V165.892H123.081V160.541Z" fill="white"/>
<path d="M133.784 160.541H128.432V165.892H133.784V160.541Z" fill="white"/>
<path d="M139.135 160.541H133.784V165.892H139.135V160.541Z" fill="white"/>
<path d="M155.189 160.541H149.838V165.892H155.189V160.541Z" fill="white"/>
<path d="M165.892 160.541H160.541V165.892H165.892V160.541Z" fill="white"/>
<path d="M176.595 160.541H171.243V165.892H176.595V160.541Z" fill="white"/>
<path d="M181.946 160.541H176.595V165.892H181.946V160.541Z" fill="white"/>
<path d="M187.297 160.541H181.946V165.892H187.297V160.541Z" fill="white"/>
<path d="M5.35135 165.892H0V171.243H5.35135V165.892Z" fill="white"/>
<path d="M37.4595 165.892H32.1081V171.243H37.4595V165.892Z" fill="white"/>
<path d="M80.2703 165.892H74.9189V171.243H80.2703V165.892Z" fill="white"/>
<path d="M96.3243 165.892H90.973V171.243H96.3243V165.892Z" fill="white"/>
<path d="M101.676 165.892H96.3243V171.243H101.676V165.892Z" fill="white"/>
<path d="M107.027 165.892H101.676V171.243H107.027V165.892Z" fill="white"/>
<path d="M117.73 165.892H112.378V171.243H117.73V165.892Z" fill="white"/>
<path d="M133.784 165.892H128.432V171.243H133.784V165.892Z" fill="white"/>
<path d="M155.189 165.892H149.838V171.243H155.189V165.892Z" fill="white"/>
<path d="M176.595 165.892H171.243V171.243H176.595V165.892Z" fill="white"/>
<path d="M181.946 165.892H176.595V171.243H181.946V165.892Z" fill="white"/>
<path d="M187.297 165.892H181.946V171.243H187.297V165.892Z" fill="white"/>
<path d="M192.649 165.892H187.297V171.243H192.649V165.892Z" fill="white"/>
<path d="M5.35135 171.243H0V176.595H5.35135V171.243Z" fill="white"/>
<path d="M16.0541 171.243H10.7027V176.595H16.0541V171.243Z" fill="white"/>
<path d="M21.4054 171.243H16.0541V176.595H21.4054V171.243Z" fill="white"/>
<path d="M26.7568 171.243H21.4054V176.595H26.7568V171.243Z" fill="white"/>
<path d="M37.4595 171.243H32.1081V176.595H37.4595V171.243Z" fill="white"/>
<path d="M58.8649 171.243H53.5135V176.595H58.8649V171.243Z" fill="white"/>
<path d="M69.5676 171.243H64.2162V176.595H69.5676V171.243Z" fill="white"/>
<path d="M74.9189 171.243H69.5676V176.595H74.9189V171.243Z" fill="white"/>
<path d="M85.6216 171.243H80.2703V176.595H85.6216V171.243Z" fill="white"/>
<path d="M107.027 171.243H101.676V176.595H107.027V171.243Z" fill="white"/>
<path d="M112.378 171.243H107.027V176.595H112.378V171.243Z" fill="white"/>
<path d="M123.081 171.243H117.73V176.595H123.081V171.243Z" fill="white"/>
<path d="M133.784 171.243H128.432V176.595H133.784V171.243Z" fill="white"/>
<path d="M139.135 171.243H133.784V176.595H139.135V171.243Z" fill="white"/>
<path d="M149.838 171.243H144.486V176.595H149.838V171.243Z" fill="white"/>
<path d="M155.189 171.243H149.838V176.595H155.189V171.243Z" fill="white"/>
<path d="M160.541 171.243H155.189V176.595H160.541V171.243Z" fill="white"/>
<path d="M165.892 171.243H160.541V176.595H165.892V171.243Z" fill="white"/>
<path d="M171.243 171.243H165.892V176.595H171.243V171.243Z" fill="white"/>
<path d="M176.595 171.243H171.243V176.595H176.595V171.243Z" fill="white"/>
<path d="M181.946 171.243H176.595V176.595H181.946V171.243Z" fill="white"/>
<path d="M187.297 171.243H181.946V176.595H187.297V171.243Z" fill="white"/>
<path d="M192.649 171.243H187.297V176.595H192.649V171.243Z" fill="white"/>
<path d="M5.35135 176.595H0V181.946H5.35135V176.595Z" fill="white"/>
<path d="M16.0541 176.595H10.7027V181.946H16.0541V176.595Z" fill="white"/>
<path d="M21.4054 176.595H16.0541V181.946H21.4054V176.595Z" fill="white"/>
<path d="M26.7568 176.595H21.4054V181.946H26.7568V176.595Z" fill="white"/>
<path d="M37.4595 176.595H32.1081V181.946H37.4595V176.595Z" fill="white"/>
<path d="M90.973 176.595H85.6216L85.6216 181.946H90.973V176.595Z" fill="white"/>
<path d="M101.676 176.595H96.3243V181.946H101.676V176.595Z" fill="white"/>
<path d="M107.027 176.595H101.676V181.946H107.027V176.595Z" fill="white"/>
<path d="M117.73 176.595H112.378V181.946H117.73V176.595Z" fill="white"/>
<path d="M123.081 176.595H117.73V181.946H123.081V176.595Z" fill="white"/>
<path d="M128.432 176.595H123.081V181.946H128.432V176.595Z" fill="white"/>
<path d="M144.486 176.595H139.135V181.946H144.486V176.595Z" fill="white"/>
<path d="M149.838 176.595H144.486V181.946H149.838V176.595Z" fill="white"/>
<path d="M155.189 176.595H149.838V181.946H155.189V176.595Z" fill="white"/>
<path d="M160.541 176.595H155.189V181.946H160.541V176.595Z" fill="white"/>
<path d="M165.892 176.595H160.541V181.946H165.892V176.595Z" fill="white"/>
<path d="M171.243 176.595H165.892V181.946H171.243V176.595Z" fill="white"/>
<path d="M176.595 176.595H171.243V181.946H176.595V176.595Z" fill="white"/>
<path d="M192.649 176.595H187.297V181.946H192.649V176.595Z" fill="white"/>
<path d="M198 176.595H192.649V181.946H198V176.595Z" fill="white"/>
<path d="M5.35135 181.946H0V187.297H5.35135V181.946Z" fill="white"/>
<path d="M16.0541 181.946H10.7027V187.297H16.0541V181.946Z" fill="white"/>
<path d="M21.4054 181.946H16.0541V187.297H21.4054V181.946Z" fill="white"/>
<path d="M26.7568 181.946H21.4054V187.297H26.7568V181.946Z" fill="white"/>
<path d="M37.4595 181.946H32.1081V187.297H37.4595V181.946Z" fill="white"/>
<path d="M48.1622 181.946H42.8108V187.297H48.1622V181.946Z" fill="white"/>
<path d="M64.2162 181.946H58.8649V187.297H64.2162V181.946Z" fill="white"/>
<path d="M69.5676 181.946H64.2162V187.297H69.5676V181.946Z" fill="white"/>
<path d="M74.9189 181.946H69.5676V187.297H74.9189V181.946Z" fill="white"/>
<path d="M80.2703 181.946H74.9189V187.297H80.2703V181.946Z" fill="white"/>
<path d="M90.973 181.946H85.6216V187.297H90.973V181.946Z" fill="white"/>
<path d="M96.3243 181.946H90.973V187.297H96.3243L96.3243 181.946Z" fill="white"/>
<path d="M128.432 181.946H123.081V187.297H128.432V181.946Z" fill="white"/>
<path d="M133.784 181.946H128.432V187.297H133.784V181.946Z" fill="white"/>
<path d="M144.486 181.946H139.135V187.297H144.486V181.946Z" fill="white"/>
<path d="M155.189 181.946H149.838V187.297H155.189V181.946Z" fill="white"/>
<path d="M160.541 181.946H155.189V187.297H160.541V181.946Z" fill="white"/>
<path d="M181.946 181.946H176.595V187.297H181.946V181.946Z" fill="white"/>
<path d="M192.649 181.946H187.297V187.297H192.649V181.946Z" fill="white"/>
<path d="M198 181.946H192.649V187.297H198V181.946Z" fill="white"/>
<path d="M5.35135 187.297H0V192.649H5.35135V187.297Z" fill="white"/>
<path d="M37.4595 187.297H32.1081V192.649H37.4595V187.297Z" fill="white"/>
<path d="M48.1622 187.297H42.8108V192.649H48.1622V187.297Z" fill="white"/>
<path d="M64.2162 187.297H58.8649V192.649H64.2162V187.297Z" fill="white"/>
<path d="M69.5676 187.297H64.2162V192.649H69.5676V187.297Z" fill="white"/>
<path d="M80.2703 187.297H74.9189V192.649H80.2703V187.297Z" fill="white"/>
<path d="M90.973 187.297H85.6216V192.649H90.973V187.297Z" fill="white"/>
<path d="M101.676 187.297H96.3243L96.3243 192.649H101.676V187.297Z" fill="white"/>
<path d="M112.378 187.297H107.027V192.649H112.378V187.297Z" fill="white"/>
<path d="M117.73 187.297H112.378V192.649H117.73V187.297Z" fill="white"/>
<path d="M123.081 187.297H117.73V192.649H123.081V187.297Z" fill="white"/>
<path d="M128.432 187.297H123.081V192.649H128.432V187.297Z" fill="white"/>
<path d="M139.135 187.297H133.784V192.649H139.135V187.297Z" fill="white"/>
<path d="M155.189 187.297H149.838V192.649H155.189V187.297Z" fill="white"/>
<path d="M160.541 187.297H155.189V192.649H160.541V187.297Z" fill="white"/>
<path d="M165.892 187.297H160.541V192.649H165.892V187.297Z" fill="white"/>
<path d="M181.946 187.297H176.595V192.649H181.946V187.297Z" fill="white"/>
<path d="M187.297 187.297H181.946V192.649H187.297V187.297Z" fill="white"/>
<path d="M198 187.297H192.649V192.649H198V187.297Z" fill="white"/>
<path d="M5.35135 192.649H0V198H5.35135V192.649Z" fill="white"/>
<path d="M10.7027 192.649H5.35135V198H10.7027V192.649Z" fill="white"/>
<path d="M16.0541 192.649H10.7027V198H16.0541V192.649Z" fill="white"/>
<path d="M21.4054 192.649H16.0541V198H21.4054V192.649Z" fill="white"/>
<path d="M26.7568 192.649H21.4054V198H26.7568V192.649Z" fill="white"/>
<path d="M32.1081 192.649H26.7568V198H32.1081V192.649Z" fill="white"/>
<path d="M37.4595 192.649H32.1081V198H37.4595V192.649Z" fill="white"/>
<path d="M64.2162 192.649H58.8649V198H64.2162V192.649Z" fill="white"/>
<path d="M74.9189 192.649H69.5676L69.5676 198H74.9189V192.649Z" fill="white"/>
<path d="M85.6216 192.649H80.2703V198H85.6216L85.6216 192.649Z" fill="white"/>
<path d="M96.3243 192.649H90.973V198H96.3243L96.3243 192.649Z" fill="white"/>
<path d="M101.676 192.649H96.3243L96.3243 198H101.676V192.649Z" fill="white"/>
<path d="M107.027 192.649H101.676V198H107.027V192.649Z" fill="white"/>
<path d="M128.432 192.649H123.081V198H128.432V192.649Z" fill="white"/>
<path d="M133.784 192.649H128.432V198H133.784V192.649Z" fill="white"/>
<path d="M139.135 192.649H133.784V198H139.135V192.649Z" fill="white"/>
<path d="M149.838 192.649H144.486V198H149.838V192.649Z" fill="white"/>
<path d="M160.541 192.649H155.189V198H160.541V192.649Z" fill="white"/>
<path d="M165.892 192.649H160.541V198H165.892V192.649Z" fill="white"/>
<path d="M198 192.649H192.649V198H198V192.649Z" fill="white"/>
</svg>
